<svg width="1440" height="810" viewBox="0 0 1440 810" fill="none" xmlns="http://www.w3.org/2000/svg">
<g clip-path="url(#clip0_1_355)">
<g opacity="0.3">
<g filter="url(#filter0_d_1_355)">
<rect width="159.965" height="159.964" rx="14.368" transform="matrix(0.978148 -0.20791 0.34612 0.93819 24.0977 286.703)" fill="#2C2D47"/>
</g>
<path d="M63.5435 305.381L64.18 307.107L61.4442 307.688L65.4491 318.544L63.519 318.954L59.5141 308.098L56.7969 308.676L56.1604 306.95L63.5435 305.381ZM72.8951 317.213C70.5715 317.707 68.5618 316.642 67.6944 314.345L69.6245 313.935C70.1206 315.225 71.0835 315.699 72.2453 315.452C73.5008 315.185 73.854 314.335 73.4826 313.328C72.561 310.83 67.0175 311.853 65.6383 308.115C64.9686 306.299 65.8513 304.639 68.0625 304.169C70.3111 303.691 72.1709 304.788 73.0161 306.915L71.0861 307.325C70.6043 306.129 69.7363 305.693 68.7244 305.908C67.6563 306.135 67.2501 306.842 67.5816 307.74C68.49 310.203 73.9992 309.032 75.4381 312.932C76.1277 314.801 75.3499 316.691 72.8951 317.213ZM79.5756 313.681L83.923 312.757L84.5596 314.482L78.3196 315.808L73.6781 303.227L75.5707 302.825L79.5756 313.681Z" fill="white"/>
<path d="M70.6633 329.669L71.0718 330.776L68.8231 331.254L72.1279 340.212L70.8836 340.477L67.5789 331.519L65.3302 331.997L64.9218 330.89L70.6633 329.669ZM77.5289 336.537L78.6982 336.288C79.1671 337.91 78.4969 339.029 76.8179 339.386C75.2138 339.727 73.8231 338.937 73.1707 337.168L72.2954 334.796C71.6482 333.042 72.3113 331.815 73.9153 331.474C75.5493 331.127 76.97 331.911 77.6172 333.665L78.2378 335.347L74.1153 336.223L74.3699 336.914C74.7943 338.064 75.5249 338.467 76.4394 338.272C77.4438 338.059 77.7494 337.529 77.5289 336.537ZM74.3282 332.55C73.4137 332.744 73.0703 333.391 73.4894 334.527L73.7705 335.289L76.7237 334.661L76.4426 333.899C76.0235 332.763 75.2726 332.349 74.3282 332.55ZM83.3968 338.019C81.7028 338.379 80.2962 337.546 79.756 336.125L80.9253 335.877C81.248 336.708 81.9795 337.157 82.9839 336.943C83.8384 336.762 84.1943 336.236 83.9397 335.546C83.319 333.864 79.5639 335.298 78.6144 332.724C78.1476 331.459 78.8196 330.432 80.3187 330.113C81.8928 329.779 83.1776 330.545 83.7275 331.947L82.5731 332.193C82.2558 331.376 81.5904 330.975 80.7059 331.163C79.8964 331.335 79.5653 331.84 79.804 332.487C80.3928 334.083 84.1373 332.62 85.1292 335.309C85.6067 336.603 84.9408 337.69 83.3968 338.019ZM87.2728 336.993L83.4323 326.583L84.6015 326.334L88.4421 336.745L87.2728 336.993ZM89.8572 328.086C91.4463 327.748 92.7064 328.535 93.3112 330.174L95.2049 335.307L94.2305 335.514L93.8753 334.814C93.7215 335.405 93.295 335.915 92.4106 336.103C90.9714 336.408 89.6232 335.734 89.0874 334.281C88.5357 332.786 89.303 331.755 91.027 331.388L92.3762 331.101L92.1322 330.44C91.7662 329.448 91.1298 328.994 90.2304 329.185C89.4658 329.348 89.0597 329.868 89.2809 330.643L88.0966 330.895C87.6473 329.502 88.3281 328.411 89.8572 328.086ZM93.209 333.359L92.7475 332.108L91.3833 332.398C90.3639 332.615 89.979 333.193 90.292 334.041C90.5997 334.875 91.3487 335.196 92.2482 335.005C93.1477 334.814 93.5008 334.15 93.209 333.359ZM96.8412 324.105L98.0705 323.844L101.784 333.909L100.554 334.17L96.8412 324.105ZM103.999 325.08C105.318 324.8 106.487 325.513 107.251 327.583L109.017 332.371L107.848 332.62L106.113 327.918C105.609 326.552 104.997 326.031 104.097 326.222C103.153 326.423 102.799 327.304 103.276 328.598L104.985 333.228L103.815 333.477L101.025 325.914L101.909 325.726L102.388 326.585C102.549 325.838 103.07 325.278 103.999 325.08ZM113.27 331.638C111.681 331.976 110.296 331.2 109.649 329.446L108.752 327.016C108.11 325.276 108.764 324.067 110.353 323.73C111.987 323.382 113.327 324.167 114.029 325.894L112.83 326.149C112.391 325.048 111.67 324.628 110.756 324.822C109.871 325.01 109.543 325.654 109.951 326.761L110.848 329.191C111.262 330.313 111.977 330.719 112.862 330.531C113.791 330.333 114.125 329.704 113.756 328.573L114.94 328.321C115.543 330.085 114.889 331.294 113.27 331.638ZM117.851 330.664C117.371 330.766 116.925 330.52 116.75 330.045C116.58 329.585 116.793 329.199 117.273 329.097C117.753 328.995 118.199 329.241 118.369 329.701C118.544 330.176 118.331 330.562 117.851 330.664Z" fill="white" fill-opacity="0.35"/>
<path d="M95.2203 380.401C96.0836 382.741 95.297 385.133 92.6291 386.107L93.3254 387.994L91.1742 388.452L90.4779 386.565C87.7229 386.689 85.445 385.192 84.379 382.379L87.0812 381.805C87.7758 383.611 89.1238 384.274 90.7504 383.929C92.508 383.555 93.0025 382.365 92.4826 380.956C91.1923 377.458 83.4314 378.89 81.5005 373.657C80.6836 371.442 81.5122 369.394 83.8034 368.473L83.0979 366.56L85.2491 366.103L85.9453 367.99C88.6031 367.832 90.7761 369.351 91.8295 371.977L89.1274 372.551C88.453 370.876 87.2377 370.266 85.8211 370.567C84.3257 370.885 83.757 371.874 84.2212 373.133C85.493 376.58 93.2058 374.94 95.2203 380.401ZM98.4087 384.607L97.7867 382.922C95.6516 377.134 101.581 373.269 100.235 369.62C99.8269 368.513 98.7658 367.707 97.3754 368.003C96.0899 368.276 95.583 369.279 96.1246 370.901L93.6848 371.42C92.7375 368.392 93.8022 366.293 96.5044 365.719C99.5475 365.072 101.909 366.795 102.726 369.009C104.48 373.765 98.7485 377.86 100.197 381.785L107.044 380.33L107.879 382.594L98.4087 384.607ZM107.782 363.322C110.485 362.747 113.147 364.135 114.186 366.953L117.491 375.911C118.522 378.704 117.239 380.903 114.511 381.483C111.888 382.041 109.401 380.67 108.232 377.961L110.803 377.414C111.409 378.751 112.484 379.363 113.638 379.118C114.871 378.856 115.459 377.917 114.939 376.508L113.946 373.816C113.546 374.497 112.775 375.014 111.778 375.226C109.365 375.739 106.79 374.36 105.825 371.743L104.795 368.95C103.755 366.131 105.08 363.896 107.782 363.322ZM111.362 372.872C112.569 372.616 113.129 371.601 112.59 370.142L111.625 367.525C111.077 366.04 109.888 365.425 108.655 365.687C107.422 365.949 106.827 366.944 107.375 368.428L108.35 371.07C108.879 372.505 110.103 373.14 111.362 372.872ZM121.133 379.777L120.511 378.091C118.376 372.304 124.306 368.439 122.96 364.79C122.551 363.683 121.49 362.877 120.1 363.173C118.814 363.446 118.307 364.449 118.849 366.071L116.409 366.589C115.462 363.562 116.527 361.463 119.229 360.889C122.272 360.242 124.633 361.965 125.45 364.179C127.205 368.935 121.473 373.03 122.921 376.955L129.768 375.5L130.604 377.764L121.133 379.777ZM134.087 377.322C133.143 377.523 132.264 377.059 131.921 376.128C131.587 375.222 132.02 374.478 132.964 374.278C133.909 374.077 134.787 374.541 135.121 375.447C135.465 376.378 135.032 377.122 134.087 377.322ZM129.926 358.886L139.082 356.94L139.704 358.626L140.641 375.658L137.991 376.221L137.041 359.843L130.771 361.176L129.926 358.886ZM143.817 355.961L145.706 355.559L152.176 373.098L149.631 373.638L144.377 359.396L142.309 361.844L141.288 359.076L143.817 355.961Z" fill="white"/>
<path d="M98.1754 403.933L98.5626 404.983L96.4039 405.442L97.189 407.57L96.0797 407.806L95.2946 405.678L93.1359 406.136L92.7486 405.087L94.9073 404.628L94.1223 402.5L95.2316 402.264L96.0167 404.392L98.1754 403.933ZM101.577 401.272C102.986 400.972 104.267 401.77 104.93 403.567L105.306 404.588C106.086 406.702 105.528 407.906 103.984 408.234C102.47 408.556 101.155 407.797 100.48 406.141L101.664 405.89C102.096 406.93 102.736 407.306 103.576 407.127C104.4 406.952 104.664 406.353 104.107 404.843L103.731 403.822C103.29 402.629 102.709 402.194 101.825 402.382C101.135 402.529 100.824 402.998 100.912 403.677L99.7581 403.922L97.7689 398.53L102.371 397.552L102.753 398.587L99.3351 399.314L100.343 402.046C100.597 401.682 100.992 401.396 101.577 401.272ZM108.377 407.301C107.897 407.402 107.451 407.156 107.276 406.682C107.106 406.222 107.319 405.835 107.799 405.733C108.278 405.631 108.725 405.878 108.895 406.338C109.07 406.812 108.857 407.199 108.377 407.301ZM110.631 400.2C112.291 399.878 113.473 400.759 114.019 402.24L114.274 402.93C114.969 404.814 114.366 406.028 112.701 406.381C111.142 406.713 109.708 405.979 108.977 404.087L110.162 403.835C110.71 405.146 111.454 405.453 112.278 405.277C113.252 405.07 113.561 404.416 113.099 403.165L112.855 402.503C112.425 401.338 111.621 400.998 110.616 401.211L109.672 401.412L109.359 400.564L110.226 396.999L107.003 397.684L106.616 396.634L111.323 395.634L111.615 396.425L110.631 400.2ZM115.547 399.543C114.678 399.728 113.846 399.315 113.47 398.294L112.939 396.857C112.563 395.836 112.985 395.141 113.855 394.956C114.709 394.775 115.546 395.202 115.922 396.222L116.453 397.66C116.83 398.681 116.401 399.361 115.547 399.543ZM116.287 405.449L119.515 393.908L120.504 393.698L117.276 405.238L116.287 405.449ZM115.266 398.781C115.641 398.701 115.816 398.431 115.604 397.856L115.063 396.39C114.845 395.8 114.511 395.639 114.136 395.718C113.746 395.801 113.571 396.071 113.788 396.661L114.329 398.127C114.542 398.702 114.876 398.864 115.266 398.781ZM122.886 404.186C122.016 404.37 121.185 403.958 120.808 402.937L120.278 401.499C119.901 400.478 120.324 399.784 121.194 399.599C122.048 399.417 122.885 399.844 123.261 400.865L123.792 402.303C124.168 403.324 123.74 404.004 122.886 404.186ZM122.605 403.424C122.979 403.344 123.155 403.074 122.942 402.499L122.401 401.032C122.184 400.443 121.849 400.281 121.475 400.361C121.085 400.444 120.91 400.714 121.127 401.303L121.668 402.77C121.88 403.345 122.215 403.506 122.605 403.424Z" fill="#00FFF1"/>
</g>
<g filter="url(#filter1_d_1_355)">
<rect width="197.228" height="197.226" rx="17.715" transform="matrix(0.978148 -0.20791 0.34612 0.93819 82.916 193.059)" fill="#2C2D47"/>
</g>
<path d="M131.588 216.188L132.373 218.315L129 219.032L133.938 232.417L131.558 232.923L126.62 219.538L123.27 220.25L122.486 218.123L131.588 216.188ZM143.119 230.776C140.254 231.385 137.776 230.072 136.706 227.24L139.086 226.734C139.698 228.325 140.885 228.909 142.317 228.604C143.865 228.275 144.301 227.227 143.843 225.986C142.707 222.906 135.872 224.167 134.171 219.558C133.346 217.32 134.434 215.272 137.16 214.693C139.933 214.103 142.226 215.456 143.268 218.079L140.888 218.584C140.294 217.109 139.224 216.572 137.976 216.837C136.659 217.117 136.159 217.989 136.567 219.097C137.687 222.132 144.48 220.689 146.254 225.497C147.104 227.802 146.145 230.133 143.119 230.776ZM151.355 226.42L156.715 225.281L157.5 227.409L149.807 229.044L144.084 213.532L146.417 213.036L151.355 226.42Z" fill="white"/>
<path d="M140.343 246.071L140.847 247.437L138.074 248.026L142.149 259.07L140.615 259.396L136.54 248.352L133.768 248.941L133.264 247.576L140.343 246.071ZM148.808 254.539L150.25 254.232C150.828 256.232 150.002 257.612 147.932 258.052C145.954 258.472 144.239 257.498 143.435 255.318L142.356 252.392C141.558 250.23 142.375 248.718 144.353 248.297C146.368 247.869 148.119 248.835 148.917 250.998L149.682 253.072L144.599 254.152L144.913 255.003C145.437 256.422 146.337 256.918 147.465 256.679C148.703 256.415 149.08 255.762 148.808 254.539ZM144.862 249.623C143.734 249.863 143.311 250.66 143.828 252.06L144.174 253L147.815 252.226L147.469 251.287C146.952 249.886 146.026 249.375 144.862 249.623ZM156.043 256.366C153.954 256.81 152.22 255.783 151.554 254.032L152.996 253.725C153.394 254.749 154.296 255.303 155.534 255.04C156.587 254.816 157.026 254.168 156.712 253.317C155.947 251.243 151.317 253.011 150.147 249.838C149.571 248.278 150.4 247.012 152.248 246.619C154.189 246.207 155.773 247.151 156.451 248.88L155.027 249.183C154.636 248.176 153.816 247.681 152.725 247.913C151.727 248.125 151.319 248.748 151.613 249.545C152.339 251.513 156.956 249.71 158.179 253.025C158.768 254.62 157.947 255.961 156.043 256.366ZM160.822 255.101L156.087 242.266L157.528 241.96L162.264 254.795L160.822 255.101ZM164.008 244.119C165.968 243.703 167.521 244.673 168.267 246.694L170.602 253.023L169.4 253.278L168.962 252.415C168.773 253.144 168.247 253.772 167.157 254.004C165.382 254.381 163.72 253.549 163.059 251.758C162.379 249.914 163.325 248.643 165.451 248.191L167.114 247.837L166.813 247.022C166.362 245.799 165.577 245.239 164.468 245.475C163.526 245.675 163.025 246.317 163.298 247.272L161.838 247.582C161.284 245.865 162.123 244.52 164.008 244.119ZM168.141 250.621L167.572 249.078L165.89 249.436C164.633 249.703 164.159 250.416 164.544 251.462C164.924 252.49 165.847 252.886 166.956 252.65C168.065 252.415 168.501 251.596 168.141 250.621ZM172.619 239.211L174.135 238.889L178.713 251.299L177.197 251.621L172.619 239.211ZM181.445 240.413C183.071 240.068 184.512 240.947 185.454 243.499L187.631 249.403L186.19 249.709L184.051 243.912C183.43 242.228 182.675 241.586 181.566 241.821C180.401 242.069 179.965 243.156 180.554 244.751L182.66 250.46L181.218 250.766L177.778 241.441L178.868 241.209L179.458 242.269C179.657 241.348 180.299 240.657 181.445 240.413ZM192.875 248.499C190.916 248.915 189.208 247.959 188.41 245.796L187.305 242.8C186.513 240.655 187.319 239.165 189.278 238.748C191.293 238.32 192.946 239.288 193.811 241.417L192.332 241.731C191.792 240.374 190.903 239.856 189.775 240.096C188.685 240.327 188.28 241.121 188.783 242.486L189.889 245.482C190.399 246.865 191.281 247.365 192.372 247.134C193.518 246.89 193.929 246.114 193.474 244.72L194.935 244.409C195.677 246.584 194.872 248.074 192.875 248.499ZM198.523 247.298C197.932 247.424 197.381 247.12 197.165 246.535C196.956 245.968 197.219 245.491 197.81 245.366C198.402 245.24 198.952 245.544 199.162 246.111C199.377 246.696 199.115 247.172 198.523 247.298Z" fill="white" fill-opacity="0.35"/>
<path d="M170.263 307.654C171.328 310.539 170.358 313.489 167.069 314.69L167.927 317.017L165.275 317.58L164.416 315.254C161.02 315.407 158.211 313.561 156.897 310.094L160.228 309.385C161.085 311.612 162.747 312.43 164.752 312.004C166.919 311.543 167.529 310.075 166.888 308.338C165.297 304.026 155.728 305.792 153.348 299.339C152.34 296.609 153.362 294.083 156.187 292.947L155.317 290.589L157.969 290.026L158.828 292.352C162.105 292.158 164.784 294.031 166.083 297.268L162.751 297.976C161.92 295.911 160.421 295.159 158.675 295.53C156.831 295.922 156.13 297.141 156.702 298.693C158.27 302.943 167.78 300.922 170.263 307.654ZM174.195 312.841L173.428 310.762C170.795 303.626 178.106 298.861 176.447 294.362C175.943 292.997 174.635 292.004 172.92 292.368C171.336 292.705 170.711 293.942 171.378 295.941L168.37 296.581C167.202 292.847 168.515 290.26 171.847 289.552C175.599 288.754 178.51 290.879 179.517 293.609C181.681 299.473 174.613 304.521 176.399 309.361L184.841 307.566L185.871 310.359L174.195 312.841ZM185.752 286.596C189.083 285.888 192.366 287.599 193.648 291.074L197.722 302.119C198.993 305.562 197.412 308.274 194.048 308.989C190.813 309.676 187.748 307.986 186.306 304.645L189.476 303.972C190.224 305.619 191.549 306.375 192.972 306.072C194.492 305.749 195.216 304.592 194.575 302.854L193.351 299.535C192.858 300.375 191.908 301.012 190.678 301.274C187.703 301.906 184.529 300.205 183.338 296.979L182.068 293.535C180.786 290.061 182.42 287.304 185.752 286.596ZM190.166 298.372C191.654 298.055 192.343 296.805 191.68 295.005L190.489 291.779C189.814 289.948 188.348 289.189 186.828 289.512C185.307 289.836 184.574 291.062 185.249 292.893L186.451 296.15C187.103 297.918 188.613 298.702 190.166 298.372ZM202.212 306.885L201.446 304.807C198.813 297.671 206.124 292.905 204.465 288.407C203.961 287.042 202.653 286.048 200.938 286.413C199.354 286.75 198.728 287.987 199.396 289.986L196.388 290.625C195.22 286.892 196.533 284.305 199.865 283.596C203.617 282.799 206.528 284.924 207.535 287.654C209.699 293.517 202.631 298.566 204.417 303.406L212.859 301.611L213.889 304.403L202.212 306.885ZM218.184 303.858C217.02 304.106 215.937 303.533 215.513 302.385C215.101 301.268 215.635 300.352 216.799 300.104C217.964 299.857 219.047 300.43 219.459 301.547C219.883 302.694 219.349 303.611 218.184 303.858ZM213.054 281.128L224.343 278.728L225.11 280.807L226.264 301.806L222.997 302.501L221.826 282.308L214.096 283.951L213.054 281.128ZM230.18 277.521L232.509 277.026L240.486 298.65L237.349 299.316L230.871 281.757L228.322 284.774L227.063 281.362L230.18 277.521Z" fill="white"/>
<path d="M174.264 337.635L174.742 338.929L172.08 339.495L173.048 342.119L171.68 342.409L170.712 339.786L168.051 340.351L167.573 339.057L170.235 338.492L169.267 335.868L170.635 335.577L171.603 338.201L174.264 337.635ZM178.458 334.354C180.196 333.985 181.775 334.968 182.592 337.184L183.057 338.443C184.018 341.049 183.33 342.533 181.426 342.938C179.559 343.335 177.938 342.399 177.106 340.358L178.566 340.047C179.099 341.33 179.887 341.793 180.922 341.573C181.939 341.357 182.265 340.619 181.578 338.757L181.114 337.498C180.571 336.027 179.855 335.491 178.764 335.723C177.914 335.903 177.53 336.482 177.639 337.319L176.216 337.622L173.763 330.974L179.438 329.768L179.908 331.044L175.694 331.94L176.937 335.308C177.25 334.859 177.738 334.507 178.458 334.354ZM186.842 341.787C186.251 341.913 185.7 341.609 185.485 341.024C185.275 340.457 185.538 339.98 186.129 339.854C186.721 339.729 187.271 340.032 187.481 340.6C187.697 341.185 187.434 341.661 186.842 341.787ZM189.622 333.033C191.668 332.636 193.125 333.722 193.799 335.548L194.113 336.399C194.969 338.721 194.226 340.217 192.174 340.654C190.252 341.062 188.483 340.157 187.583 337.825L189.043 337.515C189.719 339.13 190.636 339.508 191.652 339.292C192.854 339.037 193.233 338.23 192.664 336.687L192.364 335.872C191.834 334.436 190.842 334.016 189.603 334.279L188.439 334.527L188.053 333.481L189.123 329.086L185.149 329.93L184.671 328.636L190.475 327.403L190.835 328.378L189.622 333.033ZM195.683 332.222C194.611 332.45 193.586 331.941 193.121 330.683L192.467 328.91C192.003 327.651 192.524 326.795 193.596 326.567C194.65 326.343 195.681 326.869 196.146 328.128L196.8 329.901C197.264 331.16 196.736 331.998 195.683 332.222ZM196.595 339.504L200.574 325.275L201.794 325.016L197.815 339.244L196.595 339.504ZM195.336 331.283C195.798 331.184 196.014 330.852 195.753 330.143L195.085 328.334C194.817 327.608 194.405 327.408 193.943 327.507C193.462 327.609 193.246 327.941 193.514 328.668L194.182 330.477C194.443 331.186 194.855 331.385 195.336 331.283ZM204.731 337.946C203.659 338.174 202.634 337.666 202.17 336.407L201.516 334.634C201.051 333.375 201.572 332.519 202.645 332.291C203.698 332.067 204.729 332.594 205.194 333.852L205.848 335.625C206.312 336.884 205.784 337.722 204.731 337.946ZM204.384 337.007C204.846 336.909 205.062 336.576 204.801 335.867L204.134 334.058C203.866 333.332 203.453 333.132 202.991 333.231C202.511 333.333 202.294 333.666 202.563 334.392L203.23 336.201C203.491 336.91 203.904 337.109 204.384 337.007Z" fill="#00FFF1"/>
<g filter="url(#filter2_d_1_355)">
<rect width="236.748" height="236.748" rx="21.2648" transform="matrix(0.979045 0.203643 -0.54156 0.840662 1176.21 552.604)" fill="#2C2D47"/>
</g>
<path d="M1190.86 612.362L1192.11 608.81L1186.97 607.742L1183.92 610.918L1180.98 610.306L1196.61 594.637L1199.64 595.267L1193.77 612.968L1190.86 612.362ZM1189.03 605.629L1192.97 606.448L1194.63 601.713C1195.06 600.559 1195.79 598.899 1196.21 597.988L1196.13 597.971C1195.42 598.824 1194.12 600.363 1193.11 601.396L1189.03 605.629ZM1204.06 615.108L1205.31 611.556L1200.17 610.488L1197.12 613.664L1194.18 613.052L1209.81 597.383L1212.84 598.013L1206.97 615.714L1204.06 615.108ZM1202.23 608.375L1206.17 609.194L1207.83 604.459C1208.26 603.305 1208.99 601.645 1209.42 600.734L1209.33 600.717C1208.63 601.57 1207.32 603.109 1206.31 604.142L1202.23 608.375ZM1225.01 600.545C1228.82 601.336 1229.71 603.765 1227.51 607.173C1225.25 610.677 1221.84 612.157 1218.04 611.366L1215.71 610.881L1211.93 616.745L1209.13 616.162L1219.88 599.477L1225.01 600.545ZM1219.49 609.072C1221.6 609.511 1223.27 608.724 1224.65 606.579C1225.97 604.529 1225.62 603.266 1223.51 602.828L1221.21 602.348L1217.18 608.593L1219.49 609.072ZM1226.91 617.265L1233.35 618.604L1231.87 620.892L1222.63 618.97L1233.38 602.285L1236.18 602.868L1226.91 617.265Z" fill="white"/>
<path d="M1170.8 640.311L1171.84 637.242L1167.33 636.304L1164.64 639.032L1162.74 638.634L1175.33 626.118L1177.31 626.529L1172.71 640.708L1170.8 640.311ZM1168.67 634.938L1172.38 635.709L1174.02 630.927C1174.33 630.018 1174.83 628.847 1175.08 628.314L1175.01 628.3C1174.59 628.796 1173.64 629.875 1172.84 630.682L1168.67 634.938ZM1185.06 631.645C1187.24 632.098 1187.86 633.785 1186.25 636.283L1184.45 639.086C1182.86 641.545 1180.57 642.604 1178.31 642.133C1177.37 641.939 1176.68 641.406 1176.46 640.666L1173.78 644.823L1172.07 644.468L1180.75 630.986L1182.06 631.259L1181.64 632.23C1182.65 631.683 1183.97 631.419 1185.06 631.645ZM1182.67 638.716L1184.48 635.913C1185.6 634.178 1185.25 633.263 1183.85 632.972C1182.63 632.718 1181.18 633.325 1180.13 634.965L1178.3 637.806C1177.36 639.255 1177.57 640.38 1178.9 640.657C1180.37 640.962 1181.59 640.394 1182.67 638.716ZM1195.38 633.792C1197.56 634.245 1198.19 635.932 1196.58 638.43L1194.77 641.233C1193.19 643.693 1190.89 644.751 1188.63 644.28C1187.7 644.086 1187.01 643.553 1186.78 642.814L1184.1 646.97L1182.39 646.615L1191.07 633.133L1192.38 633.406L1191.96 634.377C1192.97 633.83 1194.3 633.566 1195.38 633.792ZM1193 640.863L1194.8 638.06C1195.92 636.325 1195.58 635.41 1194.18 635.119C1192.96 634.865 1191.51 635.472 1190.45 637.112L1188.62 639.953C1187.69 641.402 1187.89 642.527 1189.23 642.804C1190.69 643.109 1191.91 642.541 1193 640.863ZM1194.95 645.334L1203.84 631.529L1205.57 631.889L1196.68 645.695L1194.95 645.334ZM1207.46 644.412L1209.19 644.772C1207.65 646.851 1205.38 647.743 1202.9 647.226C1200.52 646.732 1199.87 645.083 1201.38 642.737L1203.41 639.591C1204.91 637.265 1207.3 636.249 1209.68 636.743C1212.1 637.246 1212.79 638.905 1211.29 641.231L1209.85 643.462L1203.75 642.192L1203.16 643.107C1202.18 644.632 1202.53 645.485 1203.89 645.767C1205.38 646.076 1206.43 645.648 1207.46 644.412ZM1208.78 638.178C1207.42 637.896 1206.17 638.435 1205.2 639.942L1204.55 640.952L1208.92 641.862L1209.57 640.852C1210.54 639.345 1210.18 638.469 1208.78 638.178ZM1223.24 636.083L1225.06 636.462L1216.46 649.81L1214.64 649.431L1223.24 636.083ZM1230.6 641.096C1232.56 641.502 1233.04 642.943 1231.27 645.689L1227.18 652.039L1225.45 651.678L1229.46 645.443C1230.63 643.632 1230.57 642.711 1229.24 642.434C1227.84 642.143 1226.27 642.94 1225.16 644.656L1221.21 650.796L1219.47 650.436L1225.93 640.406L1227.24 640.679L1226.71 641.907C1227.87 641.155 1229.23 640.809 1230.6 641.096ZM1233.26 653.541C1230.9 653.051 1230.24 651.422 1231.74 649.095L1233.82 645.873C1235.3 643.565 1237.66 642.564 1240.01 643.053C1242.43 643.557 1243.03 645.173 1241.63 647.499L1239.86 647.129C1240.76 645.652 1240.44 644.784 1239.08 644.503C1237.77 644.23 1236.54 644.774 1235.59 646.242L1233.52 649.465C1232.56 650.952 1232.89 651.8 1234.2 652.073C1235.58 652.359 1236.8 651.834 1237.82 650.361L1239.58 650.726C1238.01 653.038 1235.66 654.04 1233.26 653.541ZM1240.04 654.952C1239.33 654.805 1239.11 654.284 1239.52 653.654C1239.91 653.044 1240.67 652.726 1241.38 652.874C1242.09 653.022 1242.31 653.543 1241.92 654.153C1241.51 654.782 1240.75 655.1 1240.04 654.952Z" fill="white" fill-opacity="0.35"/>
<path d="M1143.85 697.363C1141.85 700.467 1137.79 702.726 1133.31 702.362L1131.7 704.864L1128.51 704.201L1130.12 701.699C1126.64 700.331 1125.84 697.402 1128.21 693.657L1132.21 694.489C1130.7 696.9 1131.47 698.383 1133.88 698.884C1136.48 699.426 1138.62 698.358 1139.83 696.489C1142.81 691.851 1131.6 689.215 1136.07 682.275C1137.96 679.338 1141.62 677.488 1145.58 677.706L1147.21 675.17L1150.4 675.833L1148.79 678.336C1152.2 679.612 1152.84 682.509 1150.7 686.037L1146.7 685.204C1148.06 682.952 1147.39 681.602 1145.29 681.165C1143.08 680.704 1141.11 681.505 1140.03 683.174C1137.09 687.745 1148.51 690.122 1143.85 697.363ZM1162.21 681.505L1165.01 682.087L1150.02 705.346L1146.25 704.562L1158.42 685.675L1152.75 687.295L1155.11 683.624L1162.21 681.505ZM1175.04 700.71L1173.13 703.68L1170.09 703.05L1166.35 708.856L1162.66 708.088L1166.4 702.282L1156.76 700.277L1157.88 698.542L1173.71 683.897L1177.48 684.681L1162.84 698.172L1168.35 699.32L1174.03 691.192L1177.3 691.871L1172.01 700.08L1175.04 700.71ZM1170.54 709.726L1171.98 707.49C1176.92 699.815 1189.09 698.714 1192.21 693.875C1193.15 692.407 1192.92 690.921 1190.86 690.492C1188.96 690.096 1187.04 690.947 1185.59 693.066L1181.97 692.314C1184.77 688.392 1188.77 686.615 1192.78 687.447C1197.29 688.385 1197.89 691.614 1196 694.551C1191.94 700.858 1179.71 702.326 1176.36 707.531L1186.5 709.641L1184.57 712.644L1170.54 709.726ZM1189.34 714.053C1187.94 713.762 1187.48 712.759 1188.28 711.525C1189.05 710.323 1190.54 709.725 1191.94 710.016C1193.34 710.307 1193.79 711.31 1193.02 712.511C1192.23 713.746 1190.74 714.344 1189.34 714.053ZM1212.67 701.121C1216.24 701.864 1217.55 704.824 1215.32 708.294L1212.93 711.998C1210.53 715.736 1206.02 717.524 1202.02 716.691C1198.02 715.859 1196.61 712.842 1199.02 709.104L1206.67 697.225C1209.06 693.521 1213.46 691.75 1217.5 692.59C1221.39 693.399 1222.6 696.3 1220.49 699.986L1216.69 699.194C1217.69 697.36 1217.19 696.083 1215.48 695.727C1213.66 695.347 1211.73 696.082 1210.52 697.95L1208.22 701.521C1209.59 700.973 1211.19 700.814 1212.67 701.121ZM1209.15 711.173L1211.4 707.669C1212.63 705.767 1211.98 704.383 1210.11 703.995C1208.32 703.623 1206.33 704.457 1205.09 706.393L1202.85 709.863C1201.58 711.832 1202.22 713.175 1204.04 713.554C1205.87 713.934 1207.88 713.141 1209.15 711.173ZM1231.76 708.649C1233.02 710.046 1232.92 712.183 1231.48 714.419L1230.97 715.22C1228.3 719.357 1223.87 721.237 1219.4 720.307C1214.94 719.377 1213.69 716.318 1216.36 712.18L1216.87 711.379C1218.31 709.144 1220.66 707.476 1223.17 706.863C1222.31 705.472 1222.48 703.501 1223.74 701.532L1224.09 700.998C1226.54 697.194 1230.73 695.341 1234.93 696.214C1239.12 697.087 1240.22 700.04 1237.77 703.844L1237.42 704.378C1236.15 706.346 1234.07 707.88 1231.76 708.649ZM1227.71 701.866L1227.39 702.367C1225.97 704.569 1226.39 705.98 1228.37 706.392C1230.35 706.804 1232.27 705.879 1233.69 703.676L1234.01 703.176C1235.36 701.074 1234.89 699.763 1232.9 699.351C1230.92 698.939 1229.07 699.764 1227.71 701.866ZM1227.24 714.444L1227.75 713.643C1229.21 711.374 1228.67 709.897 1226.41 709.429C1224.16 708.96 1222.06 709.886 1220.6 712.155L1220.09 712.956C1218.62 715.225 1219.19 716.668 1221.45 717.137C1223.7 717.606 1225.77 716.713 1227.24 714.444Z" fill="white"/>
<path d="M1116.71 725.642L1115.81 727.034L1112.61 726.369L1110.79 729.191L1109.15 728.849L1110.97 726.027L1107.77 725.362L1108.67 723.97L1111.87 724.635L1113.68 721.813L1115.33 722.154L1113.51 724.977L1116.71 725.642ZM1125.86 729.535L1124.95 730.946L1123.13 730.568L1120.92 734L1119.21 733.644L1121.42 730.212L1115.89 729.062L1116.42 728.242L1125.68 719.853L1127.48 720.227L1118.78 728.062L1122.35 728.805L1125.54 724.019L1127.14 724.351L1124.04 729.157L1125.86 729.535ZM1124.74 735.031C1124.03 734.884 1123.81 734.363 1124.21 733.733C1124.61 733.123 1125.36 732.805 1126.08 732.953C1126.79 733.101 1127 733.622 1126.61 734.232C1126.21 734.861 1125.45 735.179 1124.74 735.031ZM1135.54 721.882L1143 723.434L1142.38 724.387L1130.12 735.957L1128.28 735.573L1140.08 724.448L1134.62 723.312L1135.54 721.882ZM1142.28 729.989C1141 729.721 1140.53 728.802 1141.4 727.448L1142.63 725.542C1143.5 724.188 1144.91 723.638 1146.2 723.906C1147.47 724.169 1147.92 725.107 1147.05 726.461L1145.82 728.368C1144.95 729.721 1143.55 730.252 1142.28 729.989ZM1135.5 737.033L1154.39 725.824L1155.85 726.129L1136.97 737.338L1135.5 737.033ZM1142.94 728.978C1143.49 729.094 1144.05 728.886 1144.54 728.123L1145.8 726.178C1146.3 725.397 1146.11 725.032 1145.55 724.917C1144.97 724.797 1144.41 725.004 1143.91 725.786L1142.66 727.731C1142.16 728.494 1142.36 728.858 1142.94 728.978ZM1145.1 739.224C1143.81 738.956 1143.34 738.037 1144.22 736.683L1145.45 734.776C1146.32 733.423 1147.73 732.873 1149.02 733.141C1150.28 733.404 1150.74 734.342 1149.86 735.696L1148.64 737.602C1147.76 738.956 1146.36 739.487 1145.1 739.224ZM1145.75 738.213C1146.3 738.328 1146.87 738.121 1147.36 737.358L1148.61 735.413C1149.11 734.631 1148.92 734.267 1148.37 734.151C1147.79 734.031 1147.23 734.239 1146.72 735.021L1145.47 736.966C1144.98 737.728 1145.17 738.093 1145.75 738.213Z" fill="#00FFF1"/>
</g>
<defs>
<filter id="filter0_d_1_355" x="-48.0317" y="239.306" width="343.02" height="317.434" filterUnits="userSpaceOnUse" color-interpolation-filters="sRGB">
<feFlood flood-opacity="0" result="BackgroundImageFix"/>
<feColorMatrix in="SourceAlpha" type="matrix" values="0 0 0 0 0 0 0 0 0 0 0 0 0 0 0 0 0 0 127 0" result="hardAlpha"/>
<feMorphology radius="9.57869" operator="erode" in="SourceAlpha" result="effect1_dropShadow_1_355"/>
<feOffset dx="-6.53741" dy="52.911"/>
<feGaussianBlur stdDeviation="39.6429"/>
<feComposite in2="hardAlpha" operator="out"/>
<feColorMatrix type="matrix" values="0 0 0 0 0 0 0 0 0 0 0 0 0 0 0 0 0 0 0.05 0"/>
<feBlend mode="normal" in2="BackgroundImageFix" result="effect1_dropShadow_1_355"/>
<feBlend mode="normal" in="SourceGraphic" in2="effect1_dropShadow_1_355" result="shape"/>
</filter>
<filter id="filter1_d_1_355" x="-6.01552" y="155.329" width="422.924" height="408.283" filterUnits="userSpaceOnUse" color-interpolation-filters="sRGB">
<feFlood flood-opacity="0" result="BackgroundImageFix"/>
<feColorMatrix in="SourceAlpha" type="matrix" values="0 0 0 0 0 0 0 0 0 0 0 0 0 0 0 0 0 0 127 0" result="hardAlpha"/>
<feMorphology radius="11.81" operator="erode" in="SourceAlpha" result="effect1_dropShadow_1_355"/>
<feOffset dx="-8.06027" dy="102.849"/>
<feGaussianBlur stdDeviation="48.8775"/>
<feComposite in2="hardAlpha" operator="out"/>
<feColorMatrix type="matrix" values="0 0 0 0 0 0 0 0 0 0 0 0 0 0 0 0 0 0 0.08 0"/>
<feBlend mode="normal" in2="BackgroundImageFix" result="effect1_dropShadow_1_355"/>
<feBlend mode="normal" in="SourceGraphic" in2="effect1_dropShadow_1_355" result="shape"/>
</filter>
<filter id="filter2_d_1_355" x="959.483" y="521.759" width="512.358" height="409.055" filterUnits="userSpaceOnUse" color-interpolation-filters="sRGB">
<feFlood flood-opacity="0" result="BackgroundImageFix"/>
<feColorMatrix in="SourceAlpha" type="matrix" values="0 0 0 0 0 0 0 0 0 0 0 0 0 0 0 0 0 0 127 0" result="hardAlpha"/>
<feMorphology radius="14.1765" operator="erode" in="SourceAlpha" result="effect1_dropShadow_1_355"/>
<feOffset dx="-12.3372" dy="50.0642"/>
<feGaussianBlur stdDeviation="49.4473"/>
<feComposite in2="hardAlpha" operator="out"/>
<feColorMatrix type="matrix" values="0 0 0 0 0 0 0 0 0 0 0 0 0 0 0 0 0 0 0.1 0"/>
<feBlend mode="normal" in2="BackgroundImageFix" result="effect1_dropShadow_1_355"/>
<feBlend mode="normal" in="SourceGraphic" in2="effect1_dropShadow_1_355" result="shape"/>
</filter>
<clipPath id="clip0_1_355">
<path d="M0 12C0 5.37257 5.37258 0 12 0H1428C1434.63 0 1440 5.37258 1440 12V810H0V12Z" fill="white"/>
</clipPath>
</defs>
</svg>
